<svg width="24" height="24" viewBox="0 0 24 24" fill="none" xmlns="http://www.w3.org/2000/svg">
<path fill-rule="evenodd" clip-rule="evenodd" d="M20.4001 4.2002H3.60015C3.28189 4.2002 2.97666 4.32662 2.75162 4.55167C2.52657 4.77671 2.40015 5.08194 2.40015 5.4002V18.6002C2.40015 18.9185 2.52657 19.2237 2.75162 19.4487C2.97666 19.6738 3.28189 19.8002 3.60015 19.8002H20.4001C20.7184 19.8002 21.0236 19.6738 21.2487 19.4487C21.4737 19.2237 21.6001 18.9185 21.6001 18.6002V5.4002C21.6001 5.08194 21.4737 4.77671 21.2487 4.55167C21.0236 4.32662 20.7184 4.2002 20.4001 4.2002ZM4.80015 17.4002V6.6002H19.2001V17.4002H4.80015Z" fill="#5C0564"/>
<path fill-rule="evenodd" clip-rule="evenodd" d="M21.1777 6.3134L12.7237 13.5134C12.5057 13.699 12.2285 13.8005 11.9422 13.7996C11.6559 13.7987 11.3794 13.6955 11.1625 13.5086L2.8165 6.3086C1.9741 5.5826 2.4877 4.2002 3.6001 4.2002H20.4001C21.5161 4.2002 22.0273 5.5898 21.1777 6.3134ZM6.8281 6.6002L11.9521 11.0198L17.1385 6.6002H6.8281Z" fill="#5C0564"/>
</svg>
