<svg width="243" height="52" viewBox="0 0 243 52" fill="none" xmlns="http://www.w3.org/2000/svg">
<path d="M84.94 27V22.158L78.946 14.04H82.024L86.236 19.332L90.43 14.04H93.544L87.55 22.176V27H84.94ZM97.066 27C96.586 27 96.148 26.886 95.752 26.658C95.368 26.418 95.056 26.106 94.816 25.722C94.588 25.326 94.474 24.888 94.474 24.408V16.632C94.474 16.152 94.588 15.72 94.816 15.336C95.056 14.94 95.368 14.628 95.752 14.4C96.148 14.16 96.586 14.04 97.066 14.04H104.842C105.31 14.04 105.736 14.16 106.12 14.4C106.516 14.628 106.834 14.94 107.074 15.336C107.314 15.72 107.434 16.152 107.434 16.632V24.408C107.434 24.888 107.314 25.326 107.074 25.722C106.834 26.106 106.516 26.418 106.12 26.658C105.736 26.886 105.31 27 104.842 27H97.066ZM97.174 24.39H104.698C104.734 24.39 104.758 24.384 104.77 24.372C104.794 24.348 104.806 24.318 104.806 24.282V16.758C104.806 16.722 104.794 16.698 104.77 16.686C104.758 16.662 104.734 16.65 104.698 16.65H97.174C97.138 16.65 97.108 16.662 97.084 16.686C97.072 16.698 97.066 16.722 97.066 16.758V24.282C97.066 24.318 97.072 24.348 97.084 24.372C97.108 24.384 97.138 24.39 97.174 24.39ZM111.972 27C111.492 27 111.054 26.886 110.658 26.658C110.274 26.418 109.962 26.106 109.722 25.722C109.494 25.326 109.38 24.888 109.38 24.408V14.04H111.972V24.282C111.972 24.318 111.978 24.348 111.99 24.372C112.014 24.384 112.044 24.39 112.08 24.39H119.604C119.64 24.39 119.664 24.384 119.676 24.372C119.7 24.348 119.712 24.318 119.712 24.282V14.04H122.34V24.408C122.34 24.888 122.22 25.326 121.98 25.722C121.74 26.106 121.422 26.418 121.026 26.658C120.642 26.886 120.216 27 119.748 27H111.972ZM124.322 27V14.04H127.076L134.654 23.076V14.04H137.282V27H134.528L126.914 17.928V27H124.322ZM141.891 27C141.411 27 140.973 26.886 140.577 26.658C140.193 26.418 139.881 26.106 139.641 25.722C139.413 25.326 139.299 24.888 139.299 24.408V16.632C139.299 16.152 139.413 15.72 139.641 15.336C139.881 14.94 140.193 14.628 140.577 14.4C140.973 14.16 141.411 14.04 141.891 14.04H149.649C150.129 14.04 150.561 14.16 150.945 14.4C151.341 14.628 151.659 14.94 151.899 15.336C152.139 15.72 152.259 16.152 152.259 16.632V17.748H149.631V16.758C149.631 16.722 149.619 16.698 149.595 16.686C149.583 16.662 149.559 16.65 149.523 16.65H141.999C141.963 16.65 141.933 16.662 141.909 16.686C141.897 16.698 141.891 16.722 141.891 16.758V24.282C141.891 24.318 141.897 24.348 141.909 24.372C141.933 24.384 141.963 24.39 141.999 24.39H149.523C149.559 24.39 149.583 24.384 149.595 24.372C149.619 24.348 149.631 24.318 149.631 24.282V22.158H146.769V19.548H152.259V24.408C152.259 24.888 152.139 25.326 151.899 25.722C151.659 26.106 151.341 26.418 150.945 26.658C150.561 26.886 150.129 27 149.649 27H141.891Z" fill="white"/>
<path d="M159.954 27V14.04H170.304C170.784 14.04 171.216 14.16 171.6 14.4C171.996 14.628 172.314 14.94 172.554 15.336C172.794 15.72 172.914 16.152 172.914 16.632V24.408C172.914 24.888 172.794 25.326 172.554 25.722C172.314 26.106 171.996 26.418 171.6 26.658C171.216 26.886 170.784 27 170.304 27H159.954ZM162.636 24.39H170.178C170.214 24.39 170.238 24.384 170.25 24.372C170.274 24.348 170.286 24.318 170.286 24.282V16.758C170.286 16.722 170.274 16.698 170.25 16.686C170.238 16.662 170.214 16.65 170.178 16.65H162.636C162.612 16.65 162.588 16.662 162.564 16.686C162.54 16.698 162.528 16.722 162.528 16.758V24.282C162.528 24.318 162.54 24.348 162.564 24.372C162.588 24.384 162.612 24.39 162.636 24.39ZM174.966 27V14.04H186.918V16.65H177.594V19.206H185.1V21.834H177.594V24.39H186.918V27H174.966ZM195.839 27L188.333 14.04H191.339L196.955 23.778L202.571 14.04H205.577L198.071 27H195.839ZM206.728 19.026V14.256H209.284V16.434C209.284 16.854 209.17 17.244 208.942 17.604C208.726 17.964 208.42 18.27 208.024 18.522C207.64 18.774 207.208 18.942 206.728 19.026ZM213.38 27C212.912 27 212.48 26.886 212.084 26.658C211.688 26.418 211.376 26.106 211.148 25.722C210.92 25.326 210.806 24.888 210.806 24.408V23.31H213.398V24.282C213.398 24.318 213.404 24.348 213.416 24.372C213.44 24.384 213.464 24.39 213.488 24.39H221.03C221.054 24.39 221.078 24.384 221.102 24.372C221.126 24.348 221.138 24.318 221.138 24.282V21.924C221.138 21.9 221.126 21.882 221.102 21.87C221.078 21.846 221.054 21.834 221.03 21.834H213.38C212.912 21.834 212.48 21.72 212.084 21.492C211.688 21.252 211.376 20.934 211.148 20.538C210.92 20.142 210.806 19.71 210.806 19.242V16.632C210.806 16.152 210.92 15.72 211.148 15.336C211.376 14.94 211.688 14.628 212.084 14.4C212.48 14.16 212.912 14.04 213.38 14.04H221.174C221.642 14.04 222.068 14.16 222.452 14.4C222.848 14.628 223.166 14.94 223.406 15.336C223.646 15.72 223.766 16.152 223.766 16.632V17.73H221.138V16.758C221.138 16.722 221.126 16.698 221.102 16.686C221.078 16.662 221.054 16.65 221.03 16.65H213.488C213.464 16.65 213.44 16.662 213.416 16.686C213.404 16.698 213.398 16.722 213.398 16.758V19.116C213.398 19.14 213.404 19.164 213.416 19.188C213.44 19.2 213.464 19.206 213.488 19.206H221.174C221.642 19.206 222.068 19.326 222.452 19.566C222.848 19.794 223.166 20.106 223.406 20.502C223.646 20.898 223.766 21.33 223.766 21.798V24.408C223.766 24.888 223.646 25.326 223.406 25.722C223.166 26.106 222.848 26.418 222.452 26.658C222.068 26.886 221.642 27 221.174 27H213.38Z" fill="#AC0ABA" fill-opacity="0.5"/>
<path d="M0 0.00834656C90.349 22.4935 4.88054 40.7738 4.88054 40.7738C3.19733 41.0548 1.83903 41.9694 1.02167 43.3608C0.103463 44.9203 0.0240369 47.0311 0.882573 48.5129C1.92577 50.3176 3.2478 50.942 4.38998 51.2129C6.18344 51.6338 7.63287 50.9619 7.63287 50.9619C7.63287 50.9619 51.3256 37.4217 50.9982 23.897C50.8326 17.1058 37.6004 5.62386 0 0.00834656Z" fill="url(#paint0_linear_161_360)"/>
<defs>
<linearGradient id="paint0_linear_161_360" x1="25.5" y1="15.2508" x2="19.5136" y2="51.229" gradientUnits="userSpaceOnUse">
<stop stop-color="white"/>
<stop offset="1" stop-color="#B101C1" stop-opacity="0.5"/>
</linearGradient>
</defs>
</svg>
