<svg width="38" height="38" viewBox="0 0 38 38" fill="none" xmlns="http://www.w3.org/2000/svg">
<g id="pepicons:letter">
<g id="Group">
<path id="Vector" fill-rule="evenodd" clip-rule="evenodd" d="M32.2998 6.6499H5.6998C5.19589 6.6499 4.71262 6.85008 4.3563 7.2064C3.99998 7.56272 3.7998 8.04599 3.7998 8.5499V29.4499C3.7998 29.9538 3.99998 30.4371 4.3563 30.7934C4.71262 31.1497 5.19589 31.3499 5.6998 31.3499H32.2998C32.8037 31.3499 33.287 31.1497 33.6433 30.7934C33.9996 30.4371 34.1998 29.9538 34.1998 29.4499V8.5499C34.1998 8.04599 33.9996 7.56272 33.6433 7.2064C33.287 6.85008 32.8037 6.6499 32.2998 6.6499ZM7.5998 27.5499V10.4499H30.3998V27.5499H7.5998Z" fill="#5C0564"/>
<path id="Vector_2" fill-rule="evenodd" clip-rule="evenodd" d="M33.5311 9.9958L20.1456 21.3958C19.8004 21.6896 19.3616 21.8503 18.9083 21.8489C18.455 21.8476 18.0171 21.6841 17.6737 21.3882L4.45923 9.9882C3.12543 8.8387 3.93863 6.6499 5.69993 6.6499H32.2999C34.0669 6.6499 34.8763 8.8501 33.5311 9.9958ZM10.8109 10.4499L18.9239 17.4476L27.1357 10.4499H10.8109Z" fill="#5C0564"/>
</g>
</g>
</svg>
